# xmcd
#
# Track frame offsets: 
#        150
#        13211
#        40631
#        64362
#        94125
#        114217
#        125604
#        144457
#        211900
#        224237
#        238854
#        251746
#        274285
#
# Disc length: 3914 seconds
#
# Revision: 4
# Processed by: cddbd v1.5.2PL0 Copyright (c) Steve Scherf et al.
# Submitted via: ExactAudioCopy v0.99pb4
#
DISCID=cd0f480d
DTITLE=James Brown - Live At Studio 54 (1980)
DYEAR=1999
DGENRE=Funk
TTITLE0=Gonna Have A Funky Good Time (Doin' It To Death)
TTITLE1=Get Up Offa That Thing
TTITLE2=Body Heat
TTITLE3=Sex Machine
TTITLE4=Try Me
TTITLE5=Papa's Got A Brand New Bag
TTITLE6=Get On The Good Foot
TTITLE7=medley (It's A Man's, Man's, Man's World . Lost Somewhere . It
TTITLE7='s A Man's, Man's, Man's World)
TTITLE8=I Got The Feeling
TTITLE9=Cold Sweat
TTITLE10=Please, Please, Please
TTITLE11=Jam
TTITLE12=medley (The Payback . It's Too Funky In Here)
EXTD=
EXTT0=
EXTT1=
EXTT2=
EXTT3=
EXTT4=
EXTT5=
EXTT6=
EXTT7=
EXTT8=
EXTT9=
EXTT10=
EXTT11=
EXTT12=
PLAYORDER=
